<svg viewBox="0 0 1600 920" role="img" aria-label="Agent RAG Multimodal — From multimodal files to grounded answers (architecture diagram)" width="1600" height="920" xmlns="http://www.w3.org/2000/svg"><style>@font-face { font-family: 'JetBrains Mono'; font-weight: 400; src: local('JetBrains Mono'), local('JetBrainsMono-Regular'); }
@font-face { font-family: 'JetBrains Mono'; font-weight: 500; src: local('JetBrains Mono'), local('JetBrainsMono-Regular'); }
@font-face { font-family: 'JetBrains Mono'; font-weight: 600; src: local('JetBrains Mono'), local('JetBrainsMono-Regular'); }
@font-face { font-family: 'JetBrains Mono'; font-weight: 700; src: local('JetBrains Mono'), local('JetBrainsMono-Regular'); }
svg { font-family: 'JetBrains Mono', ui-monospace, SFMono-Regular, Menlo, Consolas, 'DejaVu Sans Mono', 'Liberation Mono', 'Noto Sans Mono CJK SC', 'PingFang SC', 'Hiragino Sans GB', 'Microsoft YaHei', monospace; }
:root, [data-theme="dark"] { --bg: #020617; --grid: #1e293b; --text: #ffffff; --text-muted: #94a3b8; --text-dim: #475569; --text-faint: #7d8da1; --panel: rgba(15, 23, 42, 0.5); --panel-border: #1e293b; --lane-fill: rgba(15, 23, 42, 0.22); --lane-stroke: #334155; --arrow: #64748b; --arrow-emphasis: #34d399; --mask: #0f172a; --frontend-fill: rgba(8, 51, 68, 0.4); --frontend-stroke: #22d3ee; --backend-fill: rgba(6, 78, 59, 0.4); --backend-stroke: #34d399; --database-fill: rgba(76, 29, 149, 0.4); --database-stroke: #a78bfa; --cloud-fill: rgba(120, 53, 15, 0.3); --cloud-stroke: #fbbf24; --security-fill: rgba(136, 19, 55, 0.4); --security-stroke: #fb7185; --messagebus-fill: rgba(251, 146, 60, 0.3); --messagebus-stroke: #fb923c; --external-fill: rgba(30, 41, 59, 0.5); --external-stroke: #94a3b8; --toolbar-bg: rgba(15, 23, 42, 0.8); --toolbar-border: #334155; --toolbar-text: #e2e8f0; --toolbar-hover: rgba(15, 23, 42, 0.95); --toolbar-menu-bg: #0f172a; }
[data-theme="light"] { --bg: #f8fafc; --grid: #e2e8f0; --text: #0f172a; --text-muted: #64748b; --text-dim: #94a3b8; --text-faint: #64748b; --panel: #ffffff; --panel-border: #e2e8f0; --lane-fill: rgba(248, 250, 252, 0.65); --lane-stroke: #cbd5e1; --arrow: #94a3b8; --arrow-emphasis: #059669; --mask: #ffffff; --frontend-fill: rgba(34, 211, 238, 0.15); --frontend-stroke: #0891b2; --backend-fill: rgba(52, 211, 153, 0.18); --backend-stroke: #059669; --database-fill: rgba(167, 139, 250, 0.2); --database-stroke: #7c3aed; --cloud-fill: rgba(251, 191, 36, 0.18); --cloud-stroke: #d97706; --security-fill: rgba(251, 113, 133, 0.15); --security-stroke: #e11d48; --messagebus-fill: rgba(251, 146, 60, 0.15); --messagebus-stroke: #ea580c; --external-fill: rgba(148, 163, 184, 0.18); --external-stroke: #64748b; --toolbar-bg: rgba(255, 255, 255, 0.92); --toolbar-border: #cbd5e1; --toolbar-text: #334155; --toolbar-hover: #ffffff; --toolbar-menu-bg: #ffffff; }
svg { width: 100%; min-width: min(900px, 100%); display: block; }
.c-grid { stroke: var(--grid); fill: none; }
.c-mask { fill: var(--mask); stroke: none; }
.c-frontend { fill: var(--frontend-fill); stroke: var(--frontend-stroke); }
.c-backend { fill: var(--backend-fill); stroke: var(--backend-stroke); }
.c-database { fill: var(--database-fill); stroke: var(--database-stroke); }
.c-cloud { fill: var(--cloud-fill); stroke: var(--cloud-stroke); }
.c-security { fill: var(--security-fill); stroke: var(--security-stroke); }
.c-messagebus { fill: var(--messagebus-fill); stroke: var(--messagebus-stroke); }
.c-external { fill: var(--external-fill); stroke: var(--external-stroke); }
.t-primary { fill: var(--text); }
.t-muted { fill: var(--text-muted); }
.t-dim { fill: var(--text-dim); }
.t-frontend { fill: var(--frontend-stroke); }
.t-backend { fill: var(--backend-stroke); }
.t-database { fill: var(--database-stroke); }
.t-cloud { fill: var(--cloud-stroke); }
.t-security { fill: var(--security-stroke); }
.t-messagebus { fill: var(--messagebus-stroke); }
.t-external { fill: var(--external-stroke); }
.a-default { stroke: var(--arrow); fill: none; }
.a-emphasis { stroke: var(--arrow-emphasis); fill: none; }
.a-security { stroke: var(--security-stroke); fill: none; stroke-dasharray: 5, 5; }
.a-dashed { stroke: var(--database-stroke); fill: none; stroke-dasharray: 4, 4; }
.m-default { fill: var(--arrow); }
.m-emphasis { fill: var(--arrow-emphasis); }
.m-security { fill: var(--security-stroke); }
.m-dashed { fill: var(--database-stroke); }
.c-security-group { fill: transparent; stroke: var(--security-stroke); stroke-dasharray: 4, 4; }
.c-region { fill: rgba(251, 191, 36, 0.05); stroke: var(--cloud-stroke); stroke-dasharray: 8, 4; }
.c-lane { fill: var(--lane-fill); stroke: var(--lane-stroke); stroke-dasharray: 6, 6; }
svg[data-animation="trace"] [data-animate="edge"] { stroke-dasharray: 10, 8; stroke-dashoffset: 54; animation-duration: 2.4s; animation-timing-function: linear; animation-iteration-count: infinite; animation-direction: normal; animation-fill-mode: none; animation-play-state: running; animation-name: archify-edge-flow; animation-timeline: auto; animation-range: normal; animation-delay: calc(var(--step, 0) * 160ms); }
svg[data-animation="trace"] [data-animate="node"] { transform-box: fill-box; transform-origin: center center; animation-duration: 3.6s; animation-timing-function: ease-in-out; animation-iteration-count: infinite; animation-direction: normal; animation-fill-mode: none; animation-play-state: running; animation-name: archify-node-pulse; animation-timeline: auto; animation-range: normal; animation-delay: calc(var(--step, 0) * 160ms); }
:root, svg { --bg: #020617; --grid: #1e293b; --text: #ffffff; --text-muted: #94a3b8; --text-dim: #475569; --text-faint: #7d8da1; --panel: rgba(15, 23, 42, 0.5); --panel-border: #1e293b; --lane-fill: rgba(15, 23, 42, 0.22); --lane-stroke: #334155; --arrow: #64748b; --arrow-emphasis: #34d399; --mask: #0f172a; --frontend-fill: rgba(8, 51, 68, 0.4); --frontend-stroke: #22d3ee; --backend-fill: rgba(6, 78, 59, 0.4); --backend-stroke: #34d399; --database-fill: rgba(76, 29, 149, 0.4); --database-stroke: #a78bfa; --cloud-fill: rgba(120, 53, 15, 0.3); --cloud-stroke: #fbbf24; --security-fill: rgba(136, 19, 55, 0.4); --security-stroke: #fb7185; --messagebus-fill: rgba(251, 146, 60, 0.3); --messagebus-stroke: #fb923c; --external-fill: rgba(30, 41, 59, 0.5); --external-stroke: #94a3b8; --toolbar-bg: rgba(15, 23, 42, 0.8); --toolbar-border: #334155; --toolbar-text: #e2e8f0; --toolbar-hover: rgba(15, 23, 42, 0.95); --toolbar-menu-bg: #0f172a; }
@media (prefers-color-scheme: light) { :root, svg { --bg: #f8fafc; --grid: #e2e8f0; --text: #0f172a; --text-muted: #64748b; --text-dim: #94a3b8; --text-faint: #64748b; --panel: #ffffff; --panel-border: #e2e8f0; --lane-fill: rgba(248, 250, 252, 0.65); --lane-stroke: #cbd5e1; --arrow: #94a3b8; --arrow-emphasis: #059669; --mask: #ffffff; --frontend-fill: rgba(34, 211, 238, 0.15); --frontend-stroke: #0891b2; --backend-fill: rgba(52, 211, 153, 0.18); --backend-stroke: #059669; --database-fill: rgba(167, 139, 250, 0.2); --database-stroke: #7c3aed; --cloud-fill: rgba(251, 191, 36, 0.18); --cloud-stroke: #d97706; --security-fill: rgba(251, 113, 133, 0.15); --security-stroke: #e11d48; --messagebus-fill: rgba(251, 146, 60, 0.15); --messagebus-stroke: #ea580c; --external-fill: rgba(148, 163, 184, 0.18); --external-stroke: #64748b; --toolbar-bg: rgba(255, 255, 255, 0.92); --toolbar-border: #cbd5e1; --toolbar-text: #334155; --toolbar-hover: #ffffff; --toolbar-menu-bg: #ffffff; } }
svg[data-theme="light"] { --bg: #f8fafc; --grid: #e2e8f0; --text: #0f172a; --text-muted: #64748b; --text-dim: #94a3b8; --text-faint: #64748b; --panel: #ffffff; --panel-border: #e2e8f0; --lane-fill: rgba(248, 250, 252, 0.65); --lane-stroke: #cbd5e1; --arrow: #94a3b8; --arrow-emphasis: #059669; --mask: #ffffff; --frontend-fill: rgba(34, 211, 238, 0.15); --frontend-stroke: #0891b2; --backend-fill: rgba(52, 211, 153, 0.18); --backend-stroke: #059669; --database-fill: rgba(167, 139, 250, 0.2); --database-stroke: #7c3aed; --cloud-fill: rgba(251, 191, 36, 0.18); --cloud-stroke: #d97706; --security-fill: rgba(251, 113, 133, 0.15); --security-stroke: #e11d48; --messagebus-fill: rgba(251, 146, 60, 0.15); --messagebus-stroke: #ea580c; --external-fill: rgba(148, 163, 184, 0.18); --external-stroke: #64748b; --toolbar-bg: rgba(255, 255, 255, 0.92); --toolbar-border: #cbd5e1; --toolbar-text: #334155; --toolbar-hover: #ffffff; --toolbar-menu-bg: #ffffff; }
svg[data-theme="dark"] { --bg: #020617; --grid: #1e293b; --text: #ffffff; --text-muted: #94a3b8; --text-dim: #475569; --text-faint: #7d8da1; --panel: rgba(15, 23, 42, 0.5); --panel-border: #1e293b; --lane-fill: rgba(15, 23, 42, 0.22); --lane-stroke: #334155; --arrow: #64748b; --arrow-emphasis: #34d399; --mask: #0f172a; --frontend-fill: rgba(8, 51, 68, 0.4); --frontend-stroke: #22d3ee; --backend-fill: rgba(6, 78, 59, 0.4); --backend-stroke: #34d399; --database-fill: rgba(76, 29, 149, 0.4); --database-stroke: #a78bfa; --cloud-fill: rgba(120, 53, 15, 0.3); --cloud-stroke: #fbbf24; --security-fill: rgba(136, 19, 55, 0.4); --security-stroke: #fb7185; --messagebus-fill: rgba(251, 146, 60, 0.3); --messagebus-stroke: #fb923c; --external-fill: rgba(30, 41, 59, 0.5); --external-stroke: #94a3b8; --toolbar-bg: rgba(15, 23, 42, 0.8); --toolbar-border: #334155; --toolbar-text: #e2e8f0; --toolbar-hover: rgba(15, 23, 42, 0.95); --toolbar-menu-bg: #0f172a; }
rect.c-bg-rect { fill: var(--bg); }
</style><rect width="100%" height="100%" class="c-bg-rect"/>
        <!-- Definitions -->
        <defs>
          <marker id="arrowhead" markerWidth="10" markerHeight="7" refX="9" refY="3.5" orient="auto">
            <polygon points="0 0, 10 3.5, 0 7" class="m-default"/>
          </marker>
          <marker id="arrowhead-emphasis" markerWidth="10" markerHeight="7" refX="9" refY="3.5" orient="auto">
            <polygon points="0 0, 10 3.5, 0 7" class="m-emphasis"/>
          </marker>
          <marker id="arrowhead-security" markerWidth="10" markerHeight="7" refX="9" refY="3.5" orient="auto">
            <polygon points="0 0, 10 3.5, 0 7" class="m-security"/>
          </marker>
          <marker id="arrowhead-dashed" markerWidth="10" markerHeight="7" refX="9" refY="3.5" orient="auto">
            <polygon points="0 0, 10 3.5, 0 7" class="m-dashed"/>
          </marker>
          <pattern id="grid" width="40" height="40" patternUnits="userSpaceOnUse">
            <path d="M 40 0 L 0 0 0 40" class="c-grid" stroke-width="0.5"/>
          </pattern>
        </defs>

        <!-- Background Grid -->
        <rect width="100%" height="100%" fill="url(#grid)"/>

        <!-- Boundaries (behind everything) -->
        <rect x="48" y="160" width="398" height="596" rx="12" class="c-region" stroke-width="1"/>
        <text x="56" y="178" class="t-cloud" font-size="9" font-weight="600">01 · INGEST</text>

        <rect x="562" y="272" width="444" height="282" rx="12" class="c-region" stroke-width="1"/>
        <text x="570" y="290" class="t-cloud" font-size="9" font-weight="600">02 · UNDERSTAND</text>

        <rect x="1042" y="272" width="424" height="440" rx="12" class="c-region" stroke-width="1"/>
        <text x="1050" y="290" class="t-cloud" font-size="9" font-weight="600">03 · ANSWER</text>

        <!-- Connection paths (before components for correct z-order) -->
        <path d="M 230 220 L 270 220" class="a-emphasis" stroke-width="1.8" marker-end="url(#arrowhead-emphasis)"/>
        <path d="M 344 252 L 344 283 Q 344 291 336 291 L 277 291 Q 269 291 269 299 L 269 330" class="a-emphasis" stroke-width="1.8" marker-end="url(#arrowhead-emphasis)"/>
        <path d="M 269 394 L 269 470" class="a-emphasis" stroke-width="1.8" marker-end="url(#arrowhead-emphasis)"/>
        <path d="M 122 612 L 187.5 612 Q 195.5 612 195.5 604 L 195.5 402 Q 195.5 394 203.5 394 L 269 394" class="a-dashed" stroke-width="1.5" marker-end="url(#arrowhead-dashed)"/>
        <path d="M 234 612 L 243.5 612 Q 251.5 612 251.5 604 L 251.5 402 Q 251.5 394 259.5 394 L 269 394" class="a-dashed" stroke-width="1.5" marker-end="url(#arrowhead-dashed)"/>
        <path d="M 346 612 L 315.5 612 Q 307.5 612 307.5 604 L 307.5 402 Q 307.5 394 299.5 394 L 269 394" class="a-dashed" stroke-width="1.5" marker-end="url(#arrowhead-dashed)"/>
        <path d="M 122 684 L 187.5 684 Q 195.5 684 195.5 676 L 195.5 402 Q 195.5 394 203.5 394 L 269 394" class="a-dashed" stroke-width="1.5" marker-end="url(#arrowhead-dashed)"/>
        <path d="M 234 684 L 243.5 684 Q 251.5 684 251.5 676 L 251.5 402 Q 251.5 394 259.5 394 L 269 394" class="a-dashed" stroke-width="1.5" marker-end="url(#arrowhead-dashed)"/>
        <path d="M 346 684 L 315.5 684 Q 307.5 684 307.5 676 L 307.5 402 Q 307.5 394 299.5 394 L 269 394" class="a-dashed" stroke-width="1.5" marker-end="url(#arrowhead-dashed)"/>
        <path d="M 358 502 L 466 502 Q 474 502 474 494 L 474 340 Q 474 332 482 332 L 590 332" class="a-emphasis" stroke-width="1.8" marker-end="url(#arrowhead-emphasis)"/>
        <path d="M 758 332 L 800 332" class="a-emphasis" stroke-width="1.8" marker-end="url(#arrowhead-emphasis)"/>
        <path d="M 889 364 L 889 409 Q 889 417 881 417 L 792 417 Q 784 417 784 425 L 784 470" class="a-emphasis" stroke-width="1.8" marker-end="url(#arrowhead-emphasis)"/>
        <path d="M 1222 332 L 1270 332" class="a-emphasis" stroke-width="1.8" marker-end="url(#arrowhead-emphasis)"/>
        <path d="M 888 502 L 1022 502 Q 1030 502 1030 494 L 1030 413 Q 1030 405 1038 405 L 1346 405 Q 1354 405 1354 397 L 1354 364" class="a-emphasis" stroke-width="1.8" marker-end="url(#arrowhead-emphasis)"/>
        <path d="M 1354 364 L 1354 410 Q 1354 417 1347 417 L 1347 417 Q 1340 417 1340 424 L 1340 470" class="a-emphasis" stroke-width="1.8" marker-end="url(#arrowhead-emphasis)"/>
        <path d="M 1340 534 L 1340 569 Q 1340 577 1332 577 L 1298 577 Q 1290 577 1290 585 L 1290 620" class="a-emphasis" stroke-width="1.8" marker-end="url(#arrowhead-emphasis)"/>

        <!-- Components -->
        <rect x="92" y="188" width="138" height="64" rx="6" class="c-mask"/>
        <rect x="92" y="188" width="138" height="64" rx="6" class="c-external" stroke-width="1.5"/>
        <text x="161" y="218" class="t-primary" font-size="11" font-weight="600" text-anchor="middle">User uploads</text>
        <text x="161" y="234" class="t-muted" font-size="9" text-anchor="middle">files + question</text>

        <rect x="270" y="188" width="148" height="64" rx="6" class="c-mask"/>
        <rect x="270" y="188" width="148" height="64" rx="6" class="c-security" stroke-width="1.5"/>
        <text x="344" y="218" class="t-primary" font-size="11" font-weight="600" text-anchor="middle">File validation</text>
        <text x="344" y="234" class="t-muted" font-size="9" text-anchor="middle">type · size · safety</text>

        <rect x="180" y="330" width="178" height="64" rx="6" class="c-mask"/>
        <rect x="180" y="330" width="178" height="64" rx="6" class="c-backend" stroke-width="1.5"/>
        <text x="269" y="360" class="t-primary" font-size="11" font-weight="600" text-anchor="middle">Multimodal extraction</text>
        <text x="269" y="376" class="t-muted" font-size="9" text-anchor="middle">text · media · metadata</text>

        <rect x="180" y="470" width="178" height="64" rx="6" class="c-mask"/>
        <rect x="180" y="470" width="178" height="64" rx="6" class="c-cloud" stroke-width="1.5"/>
        <text x="269" y="500" class="t-primary" font-size="11" font-weight="600" text-anchor="middle">Cloudflare R2</text>
        <text x="269" y="516" class="t-muted" font-size="9" text-anchor="middle">durable file storage</text>
        <text x="269" y="526" class="t-cloud" font-size="7" text-anchor="middle">INGEST</text>

        <rect x="76" y="612" width="92" height="52" rx="6" class="c-mask"/>
        <rect x="76" y="612" width="92" height="52" rx="6" class="c-external" stroke-width="1.5"/>
        <text x="122" y="642" class="t-primary" font-size="11" font-weight="600" text-anchor="middle">PDF</text>

        <rect x="188" y="612" width="92" height="52" rx="6" class="c-mask"/>
        <rect x="188" y="612" width="92" height="52" rx="6" class="c-external" stroke-width="1.5"/>
        <text x="234" y="642" class="t-primary" font-size="11" font-weight="600" text-anchor="middle">DOCX</text>

        <rect x="300" y="612" width="92" height="52" rx="6" class="c-mask"/>
        <rect x="300" y="612" width="92" height="52" rx="6" class="c-external" stroke-width="1.5"/>
        <text x="346" y="642" class="t-primary" font-size="11" font-weight="600" text-anchor="middle">TXT / MD</text>

        <rect x="76" y="684" width="92" height="52" rx="6" class="c-mask"/>
        <rect x="76" y="684" width="92" height="52" rx="6" class="c-external" stroke-width="1.5"/>
        <text x="122" y="714" class="t-primary" font-size="11" font-weight="600" text-anchor="middle">Images</text>

        <rect x="188" y="684" width="92" height="52" rx="6" class="c-mask"/>
        <rect x="188" y="684" width="92" height="52" rx="6" class="c-external" stroke-width="1.5"/>
        <text x="234" y="714" class="t-primary" font-size="11" font-weight="600" text-anchor="middle">Audio</text>

        <rect x="300" y="684" width="92" height="52" rx="6" class="c-mask"/>
        <rect x="300" y="684" width="92" height="52" rx="6" class="c-external" stroke-width="1.5"/>
        <text x="346" y="714" class="t-primary" font-size="11" font-weight="600" text-anchor="middle">Video</text>

        <rect x="590" y="300" width="168" height="64" rx="6" class="c-mask"/>
        <rect x="590" y="300" width="168" height="64" rx="6" class="c-backend" stroke-width="1.5"/>
        <text x="674" y="330" class="t-primary" font-size="11" font-weight="600" text-anchor="middle">Content chunks</text>
        <text x="674" y="346" class="t-muted" font-size="9" text-anchor="middle">normalized context</text>

        <rect x="800" y="300" width="178" height="64" rx="6" class="c-mask"/>
        <rect x="800" y="300" width="178" height="64" rx="6" class="c-cloud" stroke-width="1.5"/>
        <text x="889" y="330" class="t-primary" font-size="11" font-weight="600" text-anchor="middle">Gemini Embeddings</text>
        <text x="889" y="346" class="t-muted" font-size="9" text-anchor="middle">semantic vectors</text>

        <rect x="680" y="470" width="208" height="64" rx="6" class="c-mask"/>
        <rect x="680" y="470" width="208" height="64" rx="6" class="c-cloud" stroke-width="1.5"/>
        <text x="784" y="500" class="t-primary" font-size="11" font-weight="600" text-anchor="middle">Pinecone Vector Search</text>
        <text x="784" y="516" class="t-muted" font-size="9" text-anchor="middle">nearest relevant chunks</text>
        <text x="784" y="526" class="t-cloud" font-size="7" text-anchor="middle">UNDERSTAND</text>

        <rect x="1070" y="300" width="152" height="64" rx="6" class="c-mask"/>
        <rect x="1070" y="300" width="152" height="64" rx="6" class="c-external" stroke-width="1.5"/>
        <text x="1146" y="330" class="t-primary" font-size="11" font-weight="600" text-anchor="middle">User question</text>
        <text x="1146" y="346" class="t-muted" font-size="9" text-anchor="middle">natural language</text>

        <rect x="1270" y="300" width="168" height="64" rx="6" class="c-mask"/>
        <rect x="1270" y="300" width="168" height="64" rx="6" class="c-backend" stroke-width="1.5"/>
        <text x="1354" y="330" class="t-primary" font-size="11" font-weight="600" text-anchor="middle">Semantic retrieval</text>
        <text x="1354" y="346" class="t-muted" font-size="9" text-anchor="middle">query → context</text>

        <rect x="1265" y="470" width="150" height="64" rx="6" class="c-mask"/>
        <rect x="1265" y="470" width="150" height="64" rx="6" class="c-cloud" stroke-width="1.5"/>
        <text x="1340" y="500" class="t-primary" font-size="11" font-weight="600" text-anchor="middle">Gemini</text>
        <text x="1340" y="516" class="t-muted" font-size="9" text-anchor="middle">grounded generation</text>

        <rect x="1175" y="620" width="230" height="72" rx="6" class="c-mask"/>
        <rect x="1175" y="620" width="230" height="72" rx="6" class="c-backend" stroke-width="1.5"/>
        <text x="1290" y="654" class="t-primary" font-size="11" font-weight="600" text-anchor="middle">Grounded answer + sources</text>
        <text x="1290" y="670" class="t-muted" font-size="9" text-anchor="middle">traceable response</text>
        <text x="1290" y="684" class="t-backend" font-size="7" text-anchor="middle">ANSWER</text>

        <!-- Connection labels -->









        <rect x="431.8" y="492" width="96.39999999999999" height="14" rx="3" class="c-mask"/>
        <text x="480" y="502" class="t-backend" font-size="8" text-anchor="middle">normalized content</text>



        <rect x="1016.6" y="380" width="86.8" height="14" rx="3" class="c-mask"/>
        <text x="1060" y="390" class="t-backend" font-size="8" text-anchor="middle">relevant context</text>



        <!-- Legend -->
        <text x="40" y="891" class="t-primary" font-size="9" font-weight="600">Legend</text>
        <rect x="40" y="896" width="14" height="9" rx="2" class="c-external" stroke-width="1"/>
        <text x="60" y="904" class="t-muted" font-size="8">External</text>
        <rect x="138" y="896" width="14" height="9" rx="2" class="c-security" stroke-width="1"/>
        <text x="158" y="904" class="t-muted" font-size="8">Security</text>
        <rect x="236" y="896" width="14" height="9" rx="2" class="c-backend" stroke-width="1"/>
        <text x="256" y="904" class="t-muted" font-size="8">Backend</text>
        <rect x="329" y="896" width="14" height="9" rx="2" class="c-cloud" stroke-width="1"/>
        <text x="349" y="904" class="t-muted" font-size="8">Cloud</text>
      </svg>